<svg width="25" height="24" viewBox="0 0 25 24" fill="none" xmlns="http://www.w3.org/2000/svg">
<rect x="13.7075" y="7" width="4" height="4" rx="2" stroke="#0A1436" stroke-width="1.5"/>
<path d="M4.0604 15.0496L3.33022 15.2209L4.0604 15.0496ZM4.0604 8.95043L3.33022 8.77915L4.0604 8.95043ZM21.3546 8.95044L20.6245 9.12171L21.3546 8.95044ZM21.3546 15.0496L20.6245 14.8783L21.3546 15.0496ZM15.7571 20.6471L15.5858 19.9169L15.7571 20.6471ZM9.65795 20.6471L9.82923 19.9169L9.65795 20.6471ZM9.65795 3.35288L9.82923 4.08306L9.65795 3.35288ZM15.7571 3.35288L15.5858 4.08306L15.7571 3.35288ZM4.89528 16.671C4.60239 16.9639 4.60239 17.4388 4.89528 17.7317C5.18817 18.0246 5.66305 18.0246 5.95594 17.7317L4.89528 16.671ZM7.1645 15.4625L6.63417 14.9321L7.1645 15.4625ZM13.0492 15.4625L12.5188 15.9928L13.0492 15.4625ZM15.4924 16.497L16.0227 17.0273L15.4924 16.497ZM16.8584 20.3324C17.1513 20.6253 17.6262 20.6253 17.9191 20.3324C18.212 20.0395 18.212 19.5646 17.9191 19.2717L16.8584 20.3324ZM20.0966 16.7059L19.5205 17.186L20.0966 16.7059ZM19.9334 17.6815C20.1986 17.9997 20.6715 18.0427 20.9897 17.7775C21.3079 17.5124 21.3509 17.0394 21.0857 16.7212L19.9334 17.6815ZM4.79058 14.8783C4.3465 12.9851 4.3465 11.0149 4.79058 9.12171L3.33022 8.77915C2.83329 10.8976 2.83329 13.1024 3.33022 15.2209L4.79058 14.8783ZM20.6245 9.12171C21.0685 11.0149 21.0685 12.9851 20.6245 14.8783L22.0848 15.2208C22.5818 13.1024 22.5818 10.8976 22.0848 8.77916L20.6245 9.12171ZM15.5858 19.9169C13.6926 20.361 11.7224 20.361 9.82923 19.9169L9.48668 21.3773C11.6052 21.8742 13.8099 21.8742 15.9284 21.3773L15.5858 19.9169ZM9.82923 4.08306C11.7224 3.63898 13.6926 3.63898 15.5858 4.08306L15.9284 2.6227C13.8099 2.12577 11.6052 2.12577 9.48668 2.6227L9.82923 4.08306ZM9.82923 19.9169C7.32913 19.3305 5.37702 17.3784 4.79058 14.8783L3.33022 15.2209C4.04676 18.2756 6.43193 20.6608 9.48668 21.3773L9.82923 19.9169ZM15.9284 21.3773C18.9831 20.6608 21.3683 18.2756 22.0848 15.2208L20.6245 14.8783C20.038 17.3784 18.0859 19.3305 15.5858 19.9169L15.9284 21.3773ZM15.5858 4.08306C18.0859 4.6695 20.038 6.62161 20.6245 9.12171L22.0848 8.77916C21.3683 5.72441 18.9831 3.33924 15.9284 2.6227L15.5858 4.08306ZM9.48668 2.6227C6.43193 3.33924 4.04676 5.72441 3.33022 8.77915L4.79058 9.12171C5.37702 6.6216 7.32913 4.6695 9.82923 4.08306L9.48668 2.6227ZM5.95594 17.7317L7.69483 15.9928L6.63417 14.9321L4.89528 16.671L5.95594 17.7317ZM12.5188 15.9928L14.2577 17.7317L15.3184 16.671L13.5795 14.9321L12.5188 15.9928ZM15.3184 17.7317L16.0227 17.0273L14.9621 15.9667L14.2577 16.671L15.3184 17.7317ZM14.2577 17.7317L16.8584 20.3324L17.9191 19.2717L15.3184 16.671L14.2577 17.7317ZM19.5205 17.186L19.9334 17.6815L21.0857 16.7212L20.6728 16.2257L19.5205 17.186ZM16.0227 17.0273C17.0085 16.0416 18.628 16.115 19.5205 17.186L20.6728 16.2257C19.2156 14.4771 16.5716 14.3572 14.9621 15.9667L16.0227 17.0273ZM7.69483 15.9928C9.02695 14.6607 11.1867 14.6607 12.5188 15.9928L13.5795 14.9321C11.6616 13.0142 8.55207 13.0142 6.63417 14.9321L7.69483 15.9928Z" fill="#0A1436"/>
</svg>
